# xmcd
#
# Track frame offsets:
# 150
# 15480
# 26247
# 38912
# 50402
# 62627
# 77880
# 93785
# 112565
# 128860
# 140907
# 156702
# 169162
#
# Disc length: 2430 seconds
#
# Revision: 1
# Processed by: cddbd v1.5.1PL0 Copyright (c) Steve Scherf et al.
# Submitted via: Easy CD Ripper v2.27
#
DISCID=ab097c0d
DTITLE=Roberto Silva - Homenagem a Orlando Silva
DYEAR=2002
DGENRE=Blues
TTITLE0=Rosa - Roberto Silva
TTITLE1=Lábios que Beijei - Roberto Silva
TTITLE2=Amigo Leal - Roberto Silva
TTITLE3=Súplica - Roberto Silva
TTITLE4=Lágrimas de Rosa - Roberto Silva
TTITLE5=Aliança Partida - Roberto Silva
TTITLE6=Deusa do Cassino - Roberto Silva
TTITLE7=Espelho do Destino - Roberto Silva
TTITLE8=Quando a Saudade Apertar - Roberto Silva
TTITLE9=Número Um - Roberto Silva
TTITLE10=Ciúme sem razão - Roberto Silva
TTITLE11=Caprichos do Destino - Roberto Silva
TTITLE12=Coqueiro Velho - Roberto Silva
EXTD=
EXTT0=
EXTT1=
EXTT2=
EXTT3=
EXTT4=
EXTT5=
EXTT6=
EXTT7=
EXTT8=
EXTT9=
EXTT10=
EXTT11=
EXTT12=
PLAYORDER=
